<mxfile host="app.diagrams.net" agent="Mozilla/5.0 (Windows NT 10.0; Win64; x64; rv:133.0) Gecko/20100101 Firefox/133.0" version="25.0.1">
  <diagram name="Page-1" id="58cdce13-f638-feb5-8d6f-7d28b1aa9fa0">
    <mxGraphModel dx="2534" dy="746" grid="1" gridSize="10" guides="1" tooltips="1" connect="1" arrows="1" fold="1" page="1" pageScale="1" pageWidth="1100" pageHeight="850" background="none" math="0" shadow="0">
      <root>
        <mxCell id="0" />
        <mxCell id="1" parent="0" />
        <mxCell id="382b91b5511bd0f7-1" value="" style="ellipse;html=1;shape=startState;fillColor=#000000;strokeColor=#ff0000;rounded=1;shadow=0;comic=0;labelBackgroundColor=none;fontFamily=Verdana;fontSize=12;fontColor=#000000;align=center;direction=south;" parent="1" vertex="1">
          <mxGeometry x="-110" y="195" width="30" height="30" as="geometry" />
        </mxCell>
        <mxCell id="5ou36HSGJX0O4_VqwiRx-3" style="edgeStyle=orthogonalEdgeStyle;rounded=0;orthogonalLoop=1;jettySize=auto;html=1;entryX=0.5;entryY=0;entryDx=0;entryDy=0;" parent="1" source="382b91b5511bd0f7-6" target="5ou36HSGJX0O4_VqwiRx-2" edge="1">
          <mxGeometry relative="1" as="geometry" />
        </mxCell>
        <mxCell id="382b91b5511bd0f7-6" value="Sets the system parameters" style="rounded=1;whiteSpace=wrap;html=1;arcSize=24;fillColor=#ffffc0;strokeColor=#ff0000;shadow=0;comic=0;labelBackgroundColor=none;fontFamily=Verdana;fontSize=12;fontColor=#000000;align=center;" parent="1" vertex="1">
          <mxGeometry x="-17.5" y="180" width="120" height="60" as="geometry" />
        </mxCell>
        <mxCell id="2a3bc250acf0617d-9" style="edgeStyle=orthogonalEdgeStyle;html=1;labelBackgroundColor=none;endArrow=open;endSize=8;strokeColor=#ff0000;fontFamily=Verdana;fontSize=12;align=left;" parent="1" source="382b91b5511bd0f7-1" target="382b91b5511bd0f7-6" edge="1">
          <mxGeometry relative="1" as="geometry" />
        </mxCell>
        <mxCell id="5ou36HSGJX0O4_VqwiRx-43" style="edgeStyle=orthogonalEdgeStyle;rounded=0;orthogonalLoop=1;jettySize=auto;html=1;entryX=0;entryY=0.5;entryDx=0;entryDy=0;" parent="1" source="5ou36HSGJX0O4_VqwiRx-2" target="5ou36HSGJX0O4_VqwiRx-42" edge="1">
          <mxGeometry relative="1" as="geometry" />
        </mxCell>
        <mxCell id="5ou36HSGJX0O4_VqwiRx-2" value="&lt;div&gt;Data import&lt;br&gt;&lt;/div&gt;" style="swimlane;whiteSpace=wrap;html=1;" parent="1" vertex="1">
          <mxGeometry x="-287.5" y="280.05" width="660" height="359.96" as="geometry" />
        </mxCell>
        <mxCell id="UFAJu-YrrLi7P_OUe6xS-30" style="edgeStyle=orthogonalEdgeStyle;rounded=0;orthogonalLoop=1;jettySize=auto;html=1;entryX=0.5;entryY=0;entryDx=0;entryDy=0;exitX=0;exitY=0.5;exitDx=0;exitDy=0;" parent="5ou36HSGJX0O4_VqwiRx-2" source="5ou36HSGJX0O4_VqwiRx-4" target="UFAJu-YrrLi7P_OUe6xS-4" edge="1">
          <mxGeometry relative="1" as="geometry">
            <Array as="points">
              <mxPoint x="170" y="45" />
            </Array>
          </mxGeometry>
        </mxCell>
        <mxCell id="AfEpOR5YmyjurqYBSBYx-1" style="edgeStyle=orthogonalEdgeStyle;rounded=0;orthogonalLoop=1;jettySize=auto;html=1;entryX=0.5;entryY=0;entryDx=0;entryDy=0;" edge="1" parent="5ou36HSGJX0O4_VqwiRx-2" source="5ou36HSGJX0O4_VqwiRx-4" target="5ou36HSGJX0O4_VqwiRx-15">
          <mxGeometry relative="1" as="geometry" />
        </mxCell>
        <mxCell id="AfEpOR5YmyjurqYBSBYx-3" style="edgeStyle=orthogonalEdgeStyle;rounded=0;orthogonalLoop=1;jettySize=auto;html=1;entryX=0.5;entryY=0;entryDx=0;entryDy=0;" edge="1" parent="5ou36HSGJX0O4_VqwiRx-2" source="5ou36HSGJX0O4_VqwiRx-4" target="AfEpOR5YmyjurqYBSBYx-2">
          <mxGeometry relative="1" as="geometry" />
        </mxCell>
        <mxCell id="5ou36HSGJX0O4_VqwiRx-4" value="" style="ellipse;html=1;shape=startState;fillColor=#000000;strokeColor=#ff0000;" parent="5ou36HSGJX0O4_VqwiRx-2" vertex="1">
          <mxGeometry x="315" y="29.989999999999995" width="30" height="30" as="geometry" />
        </mxCell>
        <mxCell id="UFAJu-YrrLi7P_OUe6xS-25" style="edgeStyle=orthogonalEdgeStyle;rounded=0;orthogonalLoop=1;jettySize=auto;html=1;entryX=0.5;entryY=0;entryDx=0;entryDy=0;" parent="5ou36HSGJX0O4_VqwiRx-2" source="5ou36HSGJX0O4_VqwiRx-15" target="5ou36HSGJX0O4_VqwiRx-32" edge="1">
          <mxGeometry relative="1" as="geometry">
            <mxPoint x="330" y="149.99" as="targetPoint" />
          </mxGeometry>
        </mxCell>
        <mxCell id="5ou36HSGJX0O4_VqwiRx-15" value="Loads problem domain description" style="rounded=1;whiteSpace=wrap;html=1;arcSize=40;fontColor=#000000;fillColor=#ffffc0;strokeColor=#ff0000;" parent="5ou36HSGJX0O4_VqwiRx-2" vertex="1">
          <mxGeometry x="270" y="89.99000000000001" width="120" height="40" as="geometry" />
        </mxCell>
        <mxCell id="5ou36HSGJX0O4_VqwiRx-39" style="edgeStyle=orthogonalEdgeStyle;rounded=0;orthogonalLoop=1;jettySize=auto;html=1;entryX=0.5;entryY=0;entryDx=0;entryDy=0;" parent="5ou36HSGJX0O4_VqwiRx-2" source="5ou36HSGJX0O4_VqwiRx-32" target="5ou36HSGJX0O4_VqwiRx-37" edge="1">
          <mxGeometry relative="1" as="geometry" />
        </mxCell>
        <mxCell id="5ou36HSGJX0O4_VqwiRx-32" value="&lt;div&gt;Load the text description&lt;/div&gt;" style="whiteSpace=wrap;html=1;fillColor=#ffffc0;strokeColor=#ff0000;fontColor=#000000;rounded=1;arcSize=40;" parent="5ou36HSGJX0O4_VqwiRx-2" vertex="1">
          <mxGeometry x="270" y="157.99" width="120" height="40" as="geometry" />
        </mxCell>
        <mxCell id="5ou36HSGJX0O4_VqwiRx-41" style="edgeStyle=orthogonalEdgeStyle;rounded=0;orthogonalLoop=1;jettySize=auto;html=1;entryX=0.5;entryY=0;entryDx=0;entryDy=0;" parent="5ou36HSGJX0O4_VqwiRx-2" source="5ou36HSGJX0O4_VqwiRx-37" target="5ou36HSGJX0O4_VqwiRx-40" edge="1">
          <mxGeometry relative="1" as="geometry" />
        </mxCell>
        <mxCell id="5ou36HSGJX0O4_VqwiRx-37" value="Export the prompts" style="whiteSpace=wrap;html=1;fillColor=#ffffc0;strokeColor=#ff0000;fontColor=#000000;rounded=1;arcSize=40;" parent="5ou36HSGJX0O4_VqwiRx-2" vertex="1">
          <mxGeometry x="270" y="227.99" width="120" height="40" as="geometry" />
        </mxCell>
        <mxCell id="5ou36HSGJX0O4_VqwiRx-40" value="" style="ellipse;html=1;shape=endState;fillColor=#000000;strokeColor=#ff0000;" parent="5ou36HSGJX0O4_VqwiRx-2" vertex="1">
          <mxGeometry x="315" y="309.98" width="30" height="30" as="geometry" />
        </mxCell>
        <mxCell id="UFAJu-YrrLi7P_OUe6xS-8" style="edgeStyle=orthogonalEdgeStyle;rounded=0;orthogonalLoop=1;jettySize=auto;html=1;entryX=0.5;entryY=0;entryDx=0;entryDy=0;" parent="5ou36HSGJX0O4_VqwiRx-2" source="UFAJu-YrrLi7P_OUe6xS-4" target="UFAJu-YrrLi7P_OUe6xS-19" edge="1">
          <mxGeometry relative="1" as="geometry">
            <mxPoint x="70" y="139.99" as="targetPoint" />
            <Array as="points">
              <mxPoint x="70" y="110" />
            </Array>
          </mxGeometry>
        </mxCell>
        <mxCell id="UFAJu-YrrLi7P_OUe6xS-10" value="&lt;font style=&quot;font-size: 14px;&quot;&gt;Yes&lt;/font&gt;" style="edgeLabel;html=1;align=center;verticalAlign=middle;resizable=0;points=[];" parent="UFAJu-YrrLi7P_OUe6xS-8" vertex="1" connectable="0">
          <mxGeometry x="0.0833" y="-2" relative="1" as="geometry">
            <mxPoint as="offset" />
          </mxGeometry>
        </mxCell>
        <mxCell id="UFAJu-YrrLi7P_OUe6xS-11" style="edgeStyle=orthogonalEdgeStyle;rounded=0;orthogonalLoop=1;jettySize=auto;html=1;entryX=0;entryY=0.5;entryDx=0;entryDy=0;exitX=0.5;exitY=1;exitDx=0;exitDy=0;" parent="5ou36HSGJX0O4_VqwiRx-2" source="UFAJu-YrrLi7P_OUe6xS-4" target="5ou36HSGJX0O4_VqwiRx-37" edge="1">
          <mxGeometry relative="1" as="geometry">
            <Array as="points">
              <mxPoint x="170" y="248" />
            </Array>
            <mxPoint x="130" y="49.99000000000001" as="sourcePoint" />
          </mxGeometry>
        </mxCell>
        <mxCell id="UFAJu-YrrLi7P_OUe6xS-13" value="&lt;font style=&quot;font-size: 14px;&quot;&gt;No&lt;/font&gt;" style="edgeLabel;html=1;align=center;verticalAlign=middle;resizable=0;points=[];" parent="UFAJu-YrrLi7P_OUe6xS-11" vertex="1" connectable="0">
          <mxGeometry x="-0.8022" relative="1" as="geometry">
            <mxPoint x="10" as="offset" />
          </mxGeometry>
        </mxCell>
        <mxCell id="UFAJu-YrrLi7P_OUe6xS-4" value="Shots?" style="rhombus;whiteSpace=wrap;html=1;fontColor=#000000;fillColor=#ffffc0;strokeColor=#ff0000;" parent="5ou36HSGJX0O4_VqwiRx-2" vertex="1">
          <mxGeometry x="110" y="79.99000000000001" width="120" height="60" as="geometry" />
        </mxCell>
        <mxCell id="UFAJu-YrrLi7P_OUe6xS-23" style="edgeStyle=orthogonalEdgeStyle;rounded=0;orthogonalLoop=1;jettySize=auto;html=1;entryX=0;entryY=0.5;entryDx=0;entryDy=0;exitX=0.5;exitY=1;exitDx=0;exitDy=0;" parent="5ou36HSGJX0O4_VqwiRx-2" source="UFAJu-YrrLi7P_OUe6xS-19" target="5ou36HSGJX0O4_VqwiRx-37" edge="1">
          <mxGeometry relative="1" as="geometry">
            <Array as="points">
              <mxPoint x="70" y="248" />
            </Array>
            <mxPoint x="-30" y="259.99" as="sourcePoint" />
          </mxGeometry>
        </mxCell>
        <mxCell id="UFAJu-YrrLi7P_OUe6xS-19" value="Load the example models" style="rounded=1;whiteSpace=wrap;html=1;arcSize=40;fontColor=#000000;fillColor=#ffffc0;strokeColor=#ff0000;" parent="5ou36HSGJX0O4_VqwiRx-2" vertex="1">
          <mxGeometry x="10" y="177.99" width="120" height="40" as="geometry" />
        </mxCell>
        <mxCell id="AfEpOR5YmyjurqYBSBYx-4" style="edgeStyle=orthogonalEdgeStyle;rounded=0;orthogonalLoop=1;jettySize=auto;html=1;entryX=1;entryY=0.5;entryDx=0;entryDy=0;" edge="1" parent="5ou36HSGJX0O4_VqwiRx-2" source="AfEpOR5YmyjurqYBSBYx-2" target="5ou36HSGJX0O4_VqwiRx-37">
          <mxGeometry relative="1" as="geometry">
            <Array as="points">
              <mxPoint x="490" y="248" />
            </Array>
          </mxGeometry>
        </mxCell>
        <mxCell id="AfEpOR5YmyjurqYBSBYx-5" value="&lt;font style=&quot;font-size: 14px;&quot;&gt;No&lt;/font&gt;" style="edgeLabel;html=1;align=center;verticalAlign=middle;resizable=0;points=[];" vertex="1" connectable="0" parent="AfEpOR5YmyjurqYBSBYx-4">
          <mxGeometry x="-0.8462" y="-2" relative="1" as="geometry">
            <mxPoint x="-8" y="-3" as="offset" />
          </mxGeometry>
        </mxCell>
        <mxCell id="AfEpOR5YmyjurqYBSBYx-7" style="edgeStyle=orthogonalEdgeStyle;rounded=0;orthogonalLoop=1;jettySize=auto;html=1;entryX=0.5;entryY=0;entryDx=0;entryDy=0;" edge="1" parent="5ou36HSGJX0O4_VqwiRx-2" source="AfEpOR5YmyjurqYBSBYx-2" target="AfEpOR5YmyjurqYBSBYx-6">
          <mxGeometry relative="1" as="geometry">
            <Array as="points">
              <mxPoint x="590" y="110" />
            </Array>
          </mxGeometry>
        </mxCell>
        <mxCell id="AfEpOR5YmyjurqYBSBYx-8" value="&lt;font style=&quot;font-size: 14px;&quot;&gt;Yes&lt;/font&gt;" style="edgeLabel;html=1;align=center;verticalAlign=middle;resizable=0;points=[];" vertex="1" connectable="0" parent="AfEpOR5YmyjurqYBSBYx-7">
          <mxGeometry x="-0.0554" y="-1" relative="1" as="geometry">
            <mxPoint x="11" y="-6" as="offset" />
          </mxGeometry>
        </mxCell>
        <mxCell id="AfEpOR5YmyjurqYBSBYx-2" value="Pre Model?" style="rhombus;whiteSpace=wrap;html=1;fontColor=#000000;fillColor=#ffffc0;strokeColor=#ff0000;" vertex="1" parent="5ou36HSGJX0O4_VqwiRx-2">
          <mxGeometry x="430" y="79.99000000000001" width="120" height="60" as="geometry" />
        </mxCell>
        <mxCell id="AfEpOR5YmyjurqYBSBYx-9" style="edgeStyle=orthogonalEdgeStyle;rounded=0;orthogonalLoop=1;jettySize=auto;html=1;entryX=1;entryY=0.5;entryDx=0;entryDy=0;" edge="1" parent="5ou36HSGJX0O4_VqwiRx-2" source="AfEpOR5YmyjurqYBSBYx-6" target="5ou36HSGJX0O4_VqwiRx-37">
          <mxGeometry relative="1" as="geometry">
            <Array as="points">
              <mxPoint x="590" y="248" />
            </Array>
          </mxGeometry>
        </mxCell>
        <mxCell id="AfEpOR5YmyjurqYBSBYx-6" value="Load the pre model" style="rounded=1;whiteSpace=wrap;html=1;arcSize=40;fontColor=#000000;fillColor=#ffffc0;strokeColor=#ff0000;" vertex="1" parent="5ou36HSGJX0O4_VqwiRx-2">
          <mxGeometry x="530" y="177.99" width="120" height="40" as="geometry" />
        </mxCell>
        <mxCell id="OOMY7clXXLe9oWTEN6Wm-24" style="edgeStyle=orthogonalEdgeStyle;rounded=0;orthogonalLoop=1;jettySize=auto;html=1;entryX=0;entryY=0.5;entryDx=0;entryDy=0;" parent="1" source="5ou36HSGJX0O4_VqwiRx-42" target="OOMY7clXXLe9oWTEN6Wm-1" edge="1">
          <mxGeometry relative="1" as="geometry" />
        </mxCell>
        <mxCell id="5ou36HSGJX0O4_VqwiRx-42" value="Call to the LLM model" style="swimlane;whiteSpace=wrap;html=1;" parent="1" vertex="1">
          <mxGeometry x="440" y="7.789999999999999" width="870" height="904.47" as="geometry" />
        </mxCell>
        <mxCell id="UFAJu-YrrLi7P_OUe6xS-36" style="edgeStyle=orthogonalEdgeStyle;rounded=0;orthogonalLoop=1;jettySize=auto;html=1;entryX=0.5;entryY=0;entryDx=0;entryDy=0;exitX=0.5;exitY=1;exitDx=0;exitDy=0;" parent="5ou36HSGJX0O4_VqwiRx-42" source="5ou36HSGJX0O4_VqwiRx-44" target="5ou36HSGJX0O4_VqwiRx-52" edge="1">
          <mxGeometry relative="1" as="geometry">
            <mxPoint x="442.2" y="59.37999999999999" as="sourcePoint" />
          </mxGeometry>
        </mxCell>
        <mxCell id="5ou36HSGJX0O4_VqwiRx-44" value="" style="ellipse;html=1;shape=startState;fillColor=#000000;strokeColor=#ff0000;" parent="5ou36HSGJX0O4_VqwiRx-42" vertex="1">
          <mxGeometry x="425.46999999999997" y="28.17" width="30" height="30" as="geometry" />
        </mxCell>
        <mxCell id="UFAJu-YrrLi7P_OUe6xS-40" style="edgeStyle=orthogonalEdgeStyle;rounded=0;orthogonalLoop=1;jettySize=auto;html=1;entryX=0.5;entryY=0;entryDx=0;entryDy=0;exitX=0.5;exitY=1;exitDx=0;exitDy=0;" parent="5ou36HSGJX0O4_VqwiRx-42" source="AfEpOR5YmyjurqYBSBYx-43" target="UFAJu-YrrLi7P_OUe6xS-39" edge="1">
          <mxGeometry relative="1" as="geometry">
            <mxPoint x="618.4499999999998" y="210.13999999999987" as="sourcePoint" />
          </mxGeometry>
        </mxCell>
        <mxCell id="UFAJu-YrrLi7P_OUe6xS-37" style="edgeStyle=orthogonalEdgeStyle;rounded=0;orthogonalLoop=1;jettySize=auto;html=1;" parent="5ou36HSGJX0O4_VqwiRx-42" source="5ou36HSGJX0O4_VqwiRx-52" target="UFAJu-YrrLi7P_OUe6xS-32" edge="1">
          <mxGeometry relative="1" as="geometry" />
        </mxCell>
        <mxCell id="5ou36HSGJX0O4_VqwiRx-52" value="Create client/model" style="whiteSpace=wrap;html=1;fillColor=#ffffc0;strokeColor=#ff0000;fontColor=#000000;rounded=1;arcSize=40;" parent="5ou36HSGJX0O4_VqwiRx-42" vertex="1">
          <mxGeometry x="380.46999999999997" y="92.93999999999998" width="120" height="40" as="geometry" />
        </mxCell>
        <mxCell id="UFAJu-YrrLi7P_OUe6xS-80" style="edgeStyle=orthogonalEdgeStyle;rounded=0;orthogonalLoop=1;jettySize=auto;html=1;entryX=0.5;entryY=0;entryDx=0;entryDy=0;" parent="5ou36HSGJX0O4_VqwiRx-42" source="UFAJu-YrrLi7P_OUe6xS-32" target="UFAJu-YrrLi7P_OUe6xS-79" edge="1">
          <mxGeometry relative="1" as="geometry" />
        </mxCell>
        <mxCell id="UFAJu-YrrLi7P_OUe6xS-82" value="&lt;font style=&quot;font-size: 14px;&quot;&gt;Manual&lt;/font&gt;" style="edgeLabel;html=1;align=center;verticalAlign=middle;resizable=0;points=[];" parent="UFAJu-YrrLi7P_OUe6xS-80" vertex="1" connectable="0">
          <mxGeometry x="0.129" relative="1" as="geometry">
            <mxPoint x="30" as="offset" />
          </mxGeometry>
        </mxCell>
        <mxCell id="UFAJu-YrrLi7P_OUe6xS-83" style="edgeStyle=orthogonalEdgeStyle;rounded=0;orthogonalLoop=1;jettySize=auto;html=1;entryX=0;entryY=0.5;entryDx=0;entryDy=0;exitX=1;exitY=0.5;exitDx=0;exitDy=0;" parent="5ou36HSGJX0O4_VqwiRx-42" source="UFAJu-YrrLi7P_OUe6xS-32" target="AfEpOR5YmyjurqYBSBYx-43" edge="1">
          <mxGeometry relative="1" as="geometry">
            <mxPoint x="513.45" y="215.36" as="sourcePoint" />
            <mxPoint x="558.4499999999998" y="190.14" as="targetPoint" />
          </mxGeometry>
        </mxCell>
        <mxCell id="UFAJu-YrrLi7P_OUe6xS-84" value="&lt;font style=&quot;font-size: 14px;&quot;&gt;None&lt;/font&gt;" style="edgeLabel;html=1;align=center;verticalAlign=middle;resizable=0;points=[];" parent="UFAJu-YrrLi7P_OUe6xS-83" vertex="1" connectable="0">
          <mxGeometry x="0.2118" y="-1" relative="1" as="geometry">
            <mxPoint x="-13" y="-16" as="offset" />
          </mxGeometry>
        </mxCell>
        <mxCell id="UFAJu-YrrLi7P_OUe6xS-86" style="edgeStyle=orthogonalEdgeStyle;rounded=0;orthogonalLoop=1;jettySize=auto;html=1;entryX=1;entryY=0.5;entryDx=0;entryDy=0;" parent="5ou36HSGJX0O4_VqwiRx-42" source="UFAJu-YrrLi7P_OUe6xS-32" target="UFAJu-YrrLi7P_OUe6xS-85" edge="1">
          <mxGeometry relative="1" as="geometry" />
        </mxCell>
        <mxCell id="UFAJu-YrrLi7P_OUe6xS-87" value="&lt;font style=&quot;font-size: 14px;&quot;&gt;Auto&lt;/font&gt;" style="edgeLabel;html=1;align=center;verticalAlign=middle;resizable=0;points=[];" parent="UFAJu-YrrLi7P_OUe6xS-86" vertex="1" connectable="0">
          <mxGeometry x="-0.2571" relative="1" as="geometry">
            <mxPoint y="-10" as="offset" />
          </mxGeometry>
        </mxCell>
        <mxCell id="UFAJu-YrrLi7P_OUe6xS-32" value="&lt;div&gt;Divide?&lt;/div&gt;" style="rhombus;whiteSpace=wrap;html=1;fontColor=#000000;fillColor=#ffffc0;strokeColor=#ff0000;" parent="5ou36HSGJX0O4_VqwiRx-42" vertex="1">
          <mxGeometry x="380.46999999999997" y="162.94000000000003" width="120" height="60" as="geometry" />
        </mxCell>
        <mxCell id="AfEpOR5YmyjurqYBSBYx-44" style="edgeStyle=orthogonalEdgeStyle;rounded=0;orthogonalLoop=1;jettySize=auto;html=1;entryX=0.5;entryY=0;entryDx=0;entryDy=0;" edge="1" parent="5ou36HSGJX0O4_VqwiRx-42" source="UFAJu-YrrLi7P_OUe6xS-79" target="UFAJu-YrrLi7P_OUe6xS-50">
          <mxGeometry relative="1" as="geometry" />
        </mxCell>
        <mxCell id="UFAJu-YrrLi7P_OUe6xS-79" value="Divide problem text description per line and save it as tasks" style="rounded=1;whiteSpace=wrap;html=1;arcSize=40;fontColor=#000000;fillColor=#ffffc0;strokeColor=#ff0000;" parent="5ou36HSGJX0O4_VqwiRx-42" vertex="1">
          <mxGeometry x="365.94000000000005" y="261.8" width="149.53" height="48.2" as="geometry" />
        </mxCell>
        <mxCell id="AfEpOR5YmyjurqYBSBYx-36" style="edgeStyle=orthogonalEdgeStyle;rounded=0;orthogonalLoop=1;jettySize=auto;html=1;entryX=0.5;entryY=0;entryDx=0;entryDy=0;" edge="1" parent="5ou36HSGJX0O4_VqwiRx-42" source="UFAJu-YrrLi7P_OUe6xS-85" target="UFAJu-YrrLi7P_OUe6xS-88">
          <mxGeometry relative="1" as="geometry" />
        </mxCell>
        <mxCell id="UFAJu-YrrLi7P_OUe6xS-85" value="Define the system role for task gen" style="rounded=1;whiteSpace=wrap;html=1;arcSize=40;fontColor=#000000;fillColor=#ffffc0;strokeColor=#ff0000;" parent="5ou36HSGJX0O4_VqwiRx-42" vertex="1">
          <mxGeometry x="190.47" y="172.94" width="120" height="40" as="geometry" />
        </mxCell>
        <mxCell id="AfEpOR5YmyjurqYBSBYx-37" style="edgeStyle=orthogonalEdgeStyle;rounded=0;orthogonalLoop=1;jettySize=auto;html=1;entryX=0.5;entryY=0;entryDx=0;entryDy=0;" edge="1" parent="5ou36HSGJX0O4_VqwiRx-42" source="UFAJu-YrrLi7P_OUe6xS-88" target="AfEpOR5YmyjurqYBSBYx-31">
          <mxGeometry relative="1" as="geometry" />
        </mxCell>
        <mxCell id="UFAJu-YrrLi7P_OUe6xS-88" value="Create User message to get tasks from text description" style="whiteSpace=wrap;html=1;fillColor=#ffffc0;strokeColor=#ff0000;fontColor=#000000;rounded=1;arcSize=40;" parent="5ou36HSGJX0O4_VqwiRx-42" vertex="1">
          <mxGeometry x="170.47" y="237.18" width="160" height="41" as="geometry" />
        </mxCell>
        <mxCell id="AfEpOR5YmyjurqYBSBYx-40" style="edgeStyle=orthogonalEdgeStyle;rounded=0;orthogonalLoop=1;jettySize=auto;html=1;entryX=0.5;entryY=0;entryDx=0;entryDy=0;" edge="1" parent="5ou36HSGJX0O4_VqwiRx-42" source="AfEpOR5YmyjurqYBSBYx-31" target="AfEpOR5YmyjurqYBSBYx-33">
          <mxGeometry relative="1" as="geometry" />
        </mxCell>
        <mxCell id="AfEpOR5YmyjurqYBSBYx-31" value="Pre Model?" style="rhombus;whiteSpace=wrap;html=1;fontColor=#000000;fillColor=#ffffc0;strokeColor=#ff0000;" vertex="1" parent="5ou36HSGJX0O4_VqwiRx-42">
          <mxGeometry x="175.47000000000006" y="304.08" width="150" height="54.24" as="geometry" />
        </mxCell>
        <mxCell id="AfEpOR5YmyjurqYBSBYx-45" style="edgeStyle=orthogonalEdgeStyle;rounded=0;orthogonalLoop=1;jettySize=auto;html=1;entryX=0;entryY=0.5;entryDx=0;entryDy=0;" edge="1" parent="5ou36HSGJX0O4_VqwiRx-42" source="AfEpOR5YmyjurqYBSBYx-33" target="UFAJu-YrrLi7P_OUe6xS-50">
          <mxGeometry relative="1" as="geometry" />
        </mxCell>
        <mxCell id="AfEpOR5YmyjurqYBSBYx-33" value="Generate tasks" style="whiteSpace=wrap;html=1;fillColor=#ffffc0;strokeColor=#ff0000;fontColor=#000000;rounded=1;arcSize=40;" vertex="1" parent="5ou36HSGJX0O4_VqwiRx-42">
          <mxGeometry x="170.47" y="442.78999999999996" width="160" height="38.71" as="geometry" />
        </mxCell>
        <mxCell id="AfEpOR5YmyjurqYBSBYx-41" style="edgeStyle=orthogonalEdgeStyle;rounded=0;orthogonalLoop=1;jettySize=auto;html=1;entryX=0.5;entryY=0;entryDx=0;entryDy=0;" edge="1" parent="5ou36HSGJX0O4_VqwiRx-42" source="AfEpOR5YmyjurqYBSBYx-39" target="AfEpOR5YmyjurqYBSBYx-33">
          <mxGeometry relative="1" as="geometry">
            <Array as="points">
              <mxPoint x="250.27" y="394.08" />
            </Array>
          </mxGeometry>
        </mxCell>
        <mxCell id="AfEpOR5YmyjurqYBSBYx-39" value="Add pre model to the prompt and update the system role" style="whiteSpace=wrap;html=1;fillColor=#ffffc0;strokeColor=#ff0000;fontColor=#000000;rounded=1;arcSize=40;" vertex="1" parent="5ou36HSGJX0O4_VqwiRx-42">
          <mxGeometry x="58.269999999999996" y="379.08" width="160" height="38.71" as="geometry" />
        </mxCell>
        <mxCell id="AfEpOR5YmyjurqYBSBYx-34" style="edgeStyle=orthogonalEdgeStyle;rounded=0;orthogonalLoop=1;jettySize=auto;html=1;entryX=0.5;entryY=0;entryDx=0;entryDy=0;" edge="1" parent="5ou36HSGJX0O4_VqwiRx-42" source="AfEpOR5YmyjurqYBSBYx-31" target="AfEpOR5YmyjurqYBSBYx-39">
          <mxGeometry relative="1" as="geometry">
            <Array as="points">
              <mxPoint x="138.27" y="331.08" />
            </Array>
          </mxGeometry>
        </mxCell>
        <mxCell id="AfEpOR5YmyjurqYBSBYx-38" value="&lt;font style=&quot;font-size: 14px;&quot;&gt;Yes&lt;/font&gt;" style="edgeLabel;html=1;align=center;verticalAlign=middle;resizable=0;points=[];" vertex="1" connectable="0" parent="AfEpOR5YmyjurqYBSBYx-34">
          <mxGeometry x="-0.7254" y="1" relative="1" as="geometry">
            <mxPoint x="-5" y="-8" as="offset" />
          </mxGeometry>
        </mxCell>
        <mxCell id="AfEpOR5YmyjurqYBSBYx-43" value="Define the system role for metamodel design" style="rounded=1;whiteSpace=wrap;html=1;arcSize=40;fontColor=#000000;fillColor=#ffffc0;strokeColor=#ff0000;" vertex="1" parent="5ou36HSGJX0O4_VqwiRx-42">
          <mxGeometry x="545.95" y="168.01000000000002" width="141.55" height="49.86" as="geometry" />
        </mxCell>
        <mxCell id="5ou36HSGJX0O4_VqwiRx-67" value="" style="edgeStyle=orthogonalEdgeStyle;rounded=0;orthogonalLoop=1;jettySize=auto;html=1;entryX=1;entryY=0.5;entryDx=0;entryDy=0;" parent="5ou36HSGJX0O4_VqwiRx-42" source="5ou36HSGJX0O4_VqwiRx-57" target="5ou36HSGJX0O4_VqwiRx-66" edge="1">
          <mxGeometry relative="1" as="geometry">
            <Array as="points">
              <mxPoint x="617.09" y="813.3199999999999" />
            </Array>
          </mxGeometry>
        </mxCell>
        <mxCell id="5ou36HSGJX0O4_VqwiRx-57" value="Generate output model" style="whiteSpace=wrap;html=1;fillColor=#ffffc0;strokeColor=#ff0000;fontColor=#000000;rounded=1;arcSize=40;" parent="5ou36HSGJX0O4_VqwiRx-42" vertex="1">
          <mxGeometry x="556.72" y="710.4999999999999" width="120" height="40" as="geometry" />
        </mxCell>
        <mxCell id="5ou36HSGJX0O4_VqwiRx-66" value="Save output model in csv and json folder" style="whiteSpace=wrap;html=1;fillColor=#ffffc0;strokeColor=#ff0000;fontColor=#000000;rounded=1;arcSize=40;" parent="5ou36HSGJX0O4_VqwiRx-42" vertex="1">
          <mxGeometry x="380.47" y="794.6899999999999" width="120" height="37.5" as="geometry" />
        </mxCell>
        <mxCell id="UFAJu-YrrLi7P_OUe6xS-101" style="edgeStyle=orthogonalEdgeStyle;rounded=0;orthogonalLoop=1;jettySize=auto;html=1;entryX=0;entryY=0.5;entryDx=0;entryDy=0;" parent="5ou36HSGJX0O4_VqwiRx-42" source="UFAJu-YrrLi7P_OUe6xS-39" target="UFAJu-YrrLi7P_OUe6xS-41" edge="1">
          <mxGeometry relative="1" as="geometry" />
        </mxCell>
        <mxCell id="UFAJu-YrrLi7P_OUe6xS-102" value="&lt;font style=&quot;font-size: 14px;&quot;&gt;Yes&lt;/font&gt;" style="edgeLabel;html=1;align=center;verticalAlign=middle;resizable=0;points=[];" parent="UFAJu-YrrLi7P_OUe6xS-101" vertex="1" connectable="0">
          <mxGeometry x="-0.4033" y="1" relative="1" as="geometry">
            <mxPoint y="18" as="offset" />
          </mxGeometry>
        </mxCell>
        <mxCell id="AfEpOR5YmyjurqYBSBYx-25" style="edgeStyle=orthogonalEdgeStyle;rounded=0;orthogonalLoop=1;jettySize=auto;html=1;entryX=0.5;entryY=0;entryDx=0;entryDy=0;" edge="1" parent="5ou36HSGJX0O4_VqwiRx-42" source="UFAJu-YrrLi7P_OUe6xS-39" target="AfEpOR5YmyjurqYBSBYx-21">
          <mxGeometry relative="1" as="geometry" />
        </mxCell>
        <mxCell id="AfEpOR5YmyjurqYBSBYx-26" value="&lt;font style=&quot;font-size: 14px;&quot;&gt;No&lt;/font&gt;" style="edgeLabel;html=1;align=center;verticalAlign=middle;resizable=0;points=[];" vertex="1" connectable="0" parent="AfEpOR5YmyjurqYBSBYx-25">
          <mxGeometry x="-0.1982" y="-1" relative="1" as="geometry">
            <mxPoint as="offset" />
          </mxGeometry>
        </mxCell>
        <mxCell id="UFAJu-YrrLi7P_OUe6xS-39" value="&lt;div&gt;Shots Remaining?&lt;/div&gt;" style="rhombus;whiteSpace=wrap;html=1;fontColor=#000000;fillColor=#ffffc0;strokeColor=#ff0000;" parent="5ou36HSGJX0O4_VqwiRx-42" vertex="1">
          <mxGeometry x="541.72" y="393.7900000000001" width="150" height="54.24" as="geometry" />
        </mxCell>
        <mxCell id="UFAJu-YrrLi7P_OUe6xS-46" style="edgeStyle=orthogonalEdgeStyle;rounded=0;orthogonalLoop=1;jettySize=auto;html=1;entryX=1;entryY=0;entryDx=0;entryDy=0;" parent="5ou36HSGJX0O4_VqwiRx-42" source="UFAJu-YrrLi7P_OUe6xS-41" target="UFAJu-YrrLi7P_OUe6xS-39" edge="1">
          <mxGeometry relative="1" as="geometry">
            <Array as="points">
              <mxPoint x="792.22" y="369.0300000000001" />
              <mxPoint x="654.22" y="369.0300000000001" />
            </Array>
          </mxGeometry>
        </mxCell>
        <mxCell id="UFAJu-YrrLi7P_OUe6xS-41" value="Create User/Assistant messages" style="whiteSpace=wrap;html=1;fillColor=#ffffc0;strokeColor=#ff0000;fontColor=#000000;rounded=1;arcSize=40;" parent="5ou36HSGJX0O4_VqwiRx-42" vertex="1">
          <mxGeometry x="731.72" y="398.7900000000001" width="120" height="44.24" as="geometry" />
        </mxCell>
        <mxCell id="UFAJu-YrrLi7P_OUe6xS-49" style="edgeStyle=orthogonalEdgeStyle;rounded=0;orthogonalLoop=1;jettySize=auto;html=1;entryX=0.5;entryY=0;entryDx=0;entryDy=0;" parent="5ou36HSGJX0O4_VqwiRx-42" source="UFAJu-YrrLi7P_OUe6xS-47" target="5ou36HSGJX0O4_VqwiRx-57" edge="1">
          <mxGeometry relative="1" as="geometry" />
        </mxCell>
        <mxCell id="UFAJu-YrrLi7P_OUe6xS-47" value="Create User request" style="whiteSpace=wrap;html=1;fillColor=#ffffc0;strokeColor=#ff0000;fontColor=#000000;rounded=1;arcSize=40;" parent="5ou36HSGJX0O4_VqwiRx-42" vertex="1">
          <mxGeometry x="556.72" y="645.5" width="120" height="44.24" as="geometry" />
        </mxCell>
        <mxCell id="AfEpOR5YmyjurqYBSBYx-11" style="edgeStyle=orthogonalEdgeStyle;rounded=0;orthogonalLoop=1;jettySize=auto;html=1;entryX=0.5;entryY=0;entryDx=0;entryDy=0;" edge="1" parent="5ou36HSGJX0O4_VqwiRx-42" source="UFAJu-YrrLi7P_OUe6xS-50" target="AfEpOR5YmyjurqYBSBYx-10">
          <mxGeometry relative="1" as="geometry" />
        </mxCell>
        <mxCell id="UFAJu-YrrLi7P_OUe6xS-50" value="Define the system role for metamodel design" style="rounded=1;whiteSpace=wrap;html=1;arcSize=40;fontColor=#000000;fillColor=#ffffc0;strokeColor=#ff0000;" parent="5ou36HSGJX0O4_VqwiRx-42" vertex="1">
          <mxGeometry x="380.47" y="442.7900000000001" width="120" height="40" as="geometry" />
        </mxCell>
        <mxCell id="VyZAPLWkNH-IayIydnEo-11" style="edgeStyle=orthogonalEdgeStyle;rounded=0;orthogonalLoop=1;jettySize=auto;html=1;entryX=0;entryY=1;entryDx=0;entryDy=0;" parent="5ou36HSGJX0O4_VqwiRx-42" source="UFAJu-YrrLi7P_OUe6xS-62" target="VyZAPLWkNH-IayIydnEo-1" edge="1">
          <mxGeometry relative="1" as="geometry" />
        </mxCell>
        <mxCell id="UFAJu-YrrLi7P_OUe6xS-62" value="Create User prompt with new task and previous model" style="whiteSpace=wrap;html=1;fillColor=#ffffc0;strokeColor=#ff0000;fontColor=#000000;rounded=1;arcSize=40;" parent="5ou36HSGJX0O4_VqwiRx-42" vertex="1">
          <mxGeometry x="189.22" y="734.6899999999999" width="122.5" height="56.32" as="geometry" />
        </mxCell>
        <mxCell id="VyZAPLWkNH-IayIydnEo-3" style="edgeStyle=orthogonalEdgeStyle;rounded=0;orthogonalLoop=1;jettySize=auto;html=1;entryX=1;entryY=0.5;entryDx=0;entryDy=0;" parent="5ou36HSGJX0O4_VqwiRx-42" source="VyZAPLWkNH-IayIydnEo-1" target="VyZAPLWkNH-IayIydnEo-2" edge="1">
          <mxGeometry relative="1" as="geometry">
            <mxPoint x="320.47" y="667.6199999999999" as="targetPoint" />
          </mxGeometry>
        </mxCell>
        <mxCell id="VyZAPLWkNH-IayIydnEo-10" value="&lt;font style=&quot;font-size: 14px;&quot;&gt;Yes&lt;/font&gt;" style="edgeLabel;html=1;align=center;verticalAlign=middle;resizable=0;points=[];" parent="VyZAPLWkNH-IayIydnEo-3" vertex="1" connectable="0">
          <mxGeometry x="-0.2075" y="-1" relative="1" as="geometry">
            <mxPoint y="-14" as="offset" />
          </mxGeometry>
        </mxCell>
        <mxCell id="VyZAPLWkNH-IayIydnEo-4" style="edgeStyle=orthogonalEdgeStyle;rounded=0;orthogonalLoop=1;jettySize=auto;html=1;entryX=0.5;entryY=0;entryDx=0;entryDy=0;" parent="5ou36HSGJX0O4_VqwiRx-42" source="VyZAPLWkNH-IayIydnEo-1" target="5ou36HSGJX0O4_VqwiRx-66" edge="1">
          <mxGeometry relative="1" as="geometry" />
        </mxCell>
        <mxCell id="VyZAPLWkNH-IayIydnEo-12" value="&lt;font style=&quot;font-size: 14px;&quot;&gt;No&lt;/font&gt;" style="edgeLabel;html=1;align=center;verticalAlign=middle;resizable=0;points=[];" parent="VyZAPLWkNH-IayIydnEo-4" vertex="1" connectable="0">
          <mxGeometry x="-0.7896" y="2" relative="1" as="geometry">
            <mxPoint x="13" y="-1" as="offset" />
          </mxGeometry>
        </mxCell>
        <mxCell id="VyZAPLWkNH-IayIydnEo-1" value="&lt;div&gt;Tasks Remaining?&lt;/div&gt;" style="rhombus;whiteSpace=wrap;html=1;fontColor=#000000;fillColor=#ffffc0;strokeColor=#ff0000;" parent="5ou36HSGJX0O4_VqwiRx-42" vertex="1">
          <mxGeometry x="365.47" y="640.5" width="150" height="54.24" as="geometry" />
        </mxCell>
        <mxCell id="VyZAPLWkNH-IayIydnEo-5" style="edgeStyle=orthogonalEdgeStyle;rounded=0;orthogonalLoop=1;jettySize=auto;html=1;entryX=1;entryY=0.5;entryDx=0;entryDy=0;" parent="5ou36HSGJX0O4_VqwiRx-42" source="VyZAPLWkNH-IayIydnEo-2" target="UFAJu-YrrLi7P_OUe6xS-57" edge="1">
          <mxGeometry relative="1" as="geometry">
            <mxPoint x="143.59000000000017" y="667.6199999999998" as="targetPoint" />
          </mxGeometry>
        </mxCell>
        <mxCell id="VyZAPLWkNH-IayIydnEo-6" value="&lt;font style=&quot;font-size: 14px;&quot;&gt;Yes&lt;/font&gt;" style="edgeLabel;html=1;align=center;verticalAlign=middle;resizable=0;points=[];" parent="VyZAPLWkNH-IayIydnEo-5" vertex="1" connectable="0">
          <mxGeometry x="-0.095" y="-1" relative="1" as="geometry">
            <mxPoint x="4" y="-16" as="offset" />
          </mxGeometry>
        </mxCell>
        <mxCell id="VyZAPLWkNH-IayIydnEo-8" style="edgeStyle=orthogonalEdgeStyle;rounded=0;orthogonalLoop=1;jettySize=auto;html=1;entryX=0.5;entryY=0;entryDx=0;entryDy=0;" parent="5ou36HSGJX0O4_VqwiRx-42" source="VyZAPLWkNH-IayIydnEo-2" target="UFAJu-YrrLi7P_OUe6xS-62" edge="1">
          <mxGeometry relative="1" as="geometry" />
        </mxCell>
        <mxCell id="VyZAPLWkNH-IayIydnEo-9" value="&lt;font style=&quot;font-size: 14px;&quot;&gt;No&lt;/font&gt;" style="edgeLabel;html=1;align=center;verticalAlign=middle;resizable=0;points=[];" parent="VyZAPLWkNH-IayIydnEo-8" vertex="1" connectable="0">
          <mxGeometry x="-0.2706" relative="1" as="geometry">
            <mxPoint x="11" y="-5" as="offset" />
          </mxGeometry>
        </mxCell>
        <mxCell id="VyZAPLWkNH-IayIydnEo-2" value="&lt;div&gt;Shots Remaining?&lt;/div&gt;" style="rhombus;whiteSpace=wrap;html=1;fontColor=#000000;fillColor=#ffffc0;strokeColor=#ff0000;" parent="5ou36HSGJX0O4_VqwiRx-42" vertex="1">
          <mxGeometry x="175.47" y="640.5" width="150" height="54.24" as="geometry" />
        </mxCell>
        <mxCell id="VyZAPLWkNH-IayIydnEo-7" style="edgeStyle=orthogonalEdgeStyle;rounded=0;orthogonalLoop=1;jettySize=auto;html=1;entryX=0;entryY=1;entryDx=0;entryDy=0;exitX=0.5;exitY=1;exitDx=0;exitDy=0;" parent="5ou36HSGJX0O4_VqwiRx-42" source="UFAJu-YrrLi7P_OUe6xS-57" target="VyZAPLWkNH-IayIydnEo-2" edge="1">
          <mxGeometry relative="1" as="geometry">
            <Array as="points">
              <mxPoint x="84.27" y="656.8" />
              <mxPoint x="84.27" y="714.8" />
              <mxPoint x="213.27" y="714.8" />
            </Array>
            <mxPoint x="83.57000000000018" y="689.7399999999999" as="sourcePoint" />
          </mxGeometry>
        </mxCell>
        <mxCell id="AfEpOR5YmyjurqYBSBYx-13" style="edgeStyle=orthogonalEdgeStyle;rounded=0;orthogonalLoop=1;jettySize=auto;html=1;entryX=0.5;entryY=0;entryDx=0;entryDy=0;" edge="1" parent="5ou36HSGJX0O4_VqwiRx-42" source="AfEpOR5YmyjurqYBSBYx-10" target="AfEpOR5YmyjurqYBSBYx-12">
          <mxGeometry relative="1" as="geometry">
            <Array as="points">
              <mxPoint x="320.09000000000003" y="533.65" />
            </Array>
          </mxGeometry>
        </mxCell>
        <mxCell id="AfEpOR5YmyjurqYBSBYx-17" value="&lt;font style=&quot;font-size: 14px;&quot;&gt;No&lt;/font&gt;" style="edgeLabel;html=1;align=center;verticalAlign=middle;resizable=0;points=[];" vertex="1" connectable="0" parent="AfEpOR5YmyjurqYBSBYx-13">
          <mxGeometry x="-0.4442" relative="1" as="geometry">
            <mxPoint as="offset" />
          </mxGeometry>
        </mxCell>
        <mxCell id="AfEpOR5YmyjurqYBSBYx-15" style="edgeStyle=orthogonalEdgeStyle;rounded=0;orthogonalLoop=1;jettySize=auto;html=1;entryX=0.5;entryY=0;entryDx=0;entryDy=0;" edge="1" parent="5ou36HSGJX0O4_VqwiRx-42" source="AfEpOR5YmyjurqYBSBYx-10" target="VyZAPLWkNH-IayIydnEo-1">
          <mxGeometry relative="1" as="geometry" />
        </mxCell>
        <mxCell id="AfEpOR5YmyjurqYBSBYx-16" value="&lt;font style=&quot;font-size: 14px;&quot;&gt;Yes&lt;/font&gt;" style="edgeLabel;html=1;align=center;verticalAlign=middle;resizable=0;points=[];" vertex="1" connectable="0" parent="AfEpOR5YmyjurqYBSBYx-15">
          <mxGeometry x="-0.6051" y="1" relative="1" as="geometry">
            <mxPoint as="offset" />
          </mxGeometry>
        </mxCell>
        <mxCell id="AfEpOR5YmyjurqYBSBYx-10" value="Pre Model?" style="rhombus;whiteSpace=wrap;html=1;fontColor=#000000;fillColor=#ffffc0;strokeColor=#ff0000;" vertex="1" parent="5ou36HSGJX0O4_VqwiRx-42">
          <mxGeometry x="365.47" y="506.45000000000005" width="150" height="54.24" as="geometry" />
        </mxCell>
        <mxCell id="AfEpOR5YmyjurqYBSBYx-14" style="edgeStyle=orthogonalEdgeStyle;rounded=0;orthogonalLoop=1;jettySize=auto;html=1;entryX=0.5;entryY=0;entryDx=0;entryDy=0;" edge="1" parent="5ou36HSGJX0O4_VqwiRx-42" source="AfEpOR5YmyjurqYBSBYx-12" target="VyZAPLWkNH-IayIydnEo-1">
          <mxGeometry relative="1" as="geometry">
            <Array as="points">
              <mxPoint x="440.09000000000003" y="596.65" />
            </Array>
          </mxGeometry>
        </mxCell>
        <mxCell id="AfEpOR5YmyjurqYBSBYx-12" value="Load pre-model as initial model" style="whiteSpace=wrap;html=1;fillColor=#ffffc0;strokeColor=#ff0000;fontColor=#000000;rounded=1;arcSize=40;" vertex="1" parent="5ou36HSGJX0O4_VqwiRx-42">
          <mxGeometry x="260.47" y="576.45" width="120" height="44.24" as="geometry" />
        </mxCell>
        <mxCell id="AfEpOR5YmyjurqYBSBYx-18" style="edgeStyle=orthogonalEdgeStyle;rounded=0;orthogonalLoop=1;jettySize=auto;html=1;entryX=0.5;entryY=0;entryDx=0;entryDy=0;" edge="1" parent="5ou36HSGJX0O4_VqwiRx-42" source="AfEpOR5YmyjurqYBSBYx-21" target="AfEpOR5YmyjurqYBSBYx-22">
          <mxGeometry relative="1" as="geometry">
            <Array as="points">
              <mxPoint x="726.72" y="533.65" />
            </Array>
          </mxGeometry>
        </mxCell>
        <mxCell id="AfEpOR5YmyjurqYBSBYx-19" value="&lt;font style=&quot;font-size: 14px;&quot;&gt;No&lt;/font&gt;" style="edgeLabel;html=1;align=center;verticalAlign=middle;resizable=0;points=[];" vertex="1" connectable="0" parent="AfEpOR5YmyjurqYBSBYx-18">
          <mxGeometry x="-0.4442" relative="1" as="geometry">
            <mxPoint as="offset" />
          </mxGeometry>
        </mxCell>
        <mxCell id="AfEpOR5YmyjurqYBSBYx-28" style="edgeStyle=orthogonalEdgeStyle;rounded=0;orthogonalLoop=1;jettySize=auto;html=1;entryX=0.5;entryY=0;entryDx=0;entryDy=0;" edge="1" parent="5ou36HSGJX0O4_VqwiRx-42" source="AfEpOR5YmyjurqYBSBYx-21" target="UFAJu-YrrLi7P_OUe6xS-47">
          <mxGeometry relative="1" as="geometry" />
        </mxCell>
        <mxCell id="AfEpOR5YmyjurqYBSBYx-29" value="&lt;font style=&quot;font-size: 14px;&quot;&gt;Yes&lt;/font&gt;" style="edgeLabel;html=1;align=center;verticalAlign=middle;resizable=0;points=[];" vertex="1" connectable="0" parent="AfEpOR5YmyjurqYBSBYx-28">
          <mxGeometry x="-0.7463" relative="1" as="geometry">
            <mxPoint y="5" as="offset" />
          </mxGeometry>
        </mxCell>
        <mxCell id="AfEpOR5YmyjurqYBSBYx-21" value="Pre Model?" style="rhombus;whiteSpace=wrap;html=1;fontColor=#000000;fillColor=#ffffc0;strokeColor=#ff0000;" vertex="1" parent="5ou36HSGJX0O4_VqwiRx-42">
          <mxGeometry x="541.72" y="506.45000000000005" width="150" height="54.24" as="geometry" />
        </mxCell>
        <mxCell id="AfEpOR5YmyjurqYBSBYx-27" style="edgeStyle=orthogonalEdgeStyle;rounded=0;orthogonalLoop=1;jettySize=auto;html=1;entryX=0.5;entryY=0;entryDx=0;entryDy=0;" edge="1" parent="5ou36HSGJX0O4_VqwiRx-42" source="AfEpOR5YmyjurqYBSBYx-22" target="UFAJu-YrrLi7P_OUe6xS-47">
          <mxGeometry relative="1" as="geometry">
            <Array as="points">
              <mxPoint x="617.09" y="596.65" />
            </Array>
          </mxGeometry>
        </mxCell>
        <mxCell id="AfEpOR5YmyjurqYBSBYx-22" value="Load pre-model as initial model" style="whiteSpace=wrap;html=1;fillColor=#ffffc0;strokeColor=#ff0000;fontColor=#000000;rounded=1;arcSize=40;" vertex="1" parent="5ou36HSGJX0O4_VqwiRx-42">
          <mxGeometry x="666.72" y="576.45" width="120" height="44.24" as="geometry" />
        </mxCell>
        <mxCell id="5ou36HSGJX0O4_VqwiRx-68" value="" style="ellipse;html=1;shape=endState;fillColor=#000000;strokeColor=#ff0000;" parent="5ou36HSGJX0O4_VqwiRx-42" vertex="1">
          <mxGeometry x="425.4700000000001" y="862.8" width="30" height="30" as="geometry" />
        </mxCell>
        <mxCell id="5ou36HSGJX0O4_VqwiRx-69" style="edgeStyle=orthogonalEdgeStyle;rounded=0;orthogonalLoop=1;jettySize=auto;html=1;entryX=0.5;entryY=0;entryDx=0;entryDy=0;" parent="5ou36HSGJX0O4_VqwiRx-42" source="5ou36HSGJX0O4_VqwiRx-66" target="5ou36HSGJX0O4_VqwiRx-68" edge="1">
          <mxGeometry relative="1" as="geometry">
            <mxPoint x="440.46999999999986" y="855.3099999999998" as="targetPoint" />
          </mxGeometry>
        </mxCell>
        <mxCell id="UFAJu-YrrLi7P_OUe6xS-57" value="Create User/Assistant messages" style="whiteSpace=wrap;html=1;fillColor=#ffffc0;strokeColor=#ff0000;fontColor=#000000;rounded=1;arcSize=40;" parent="5ou36HSGJX0O4_VqwiRx-42" vertex="1">
          <mxGeometry x="18.27" y="645.5" width="120" height="44.24" as="geometry" />
        </mxCell>
        <mxCell id="OOMY7clXXLe9oWTEN6Wm-1" value="Convertion to Ecore" style="swimlane;whiteSpace=wrap;html=1;" parent="1" vertex="1">
          <mxGeometry x="1370" y="153.45999999999998" width="440" height="613.13" as="geometry" />
        </mxCell>
        <mxCell id="OOMY7clXXLe9oWTEN6Wm-2" value="" style="ellipse;html=1;shape=startState;fillColor=#000000;strokeColor=#ff0000;" parent="OOMY7clXXLe9oWTEN6Wm-1" vertex="1">
          <mxGeometry x="205" y="30" width="30" height="30" as="geometry" />
        </mxCell>
        <mxCell id="OOMY7clXXLe9oWTEN6Wm-3" value="" style="edgeStyle=orthogonalEdgeStyle;html=1;verticalAlign=bottom;endArrow=open;endSize=8;strokeColor=#ff0000;rounded=0;entryX=0.5;entryY=0;entryDx=0;entryDy=0;" parent="OOMY7clXXLe9oWTEN6Wm-1" source="OOMY7clXXLe9oWTEN6Wm-2" target="OOMY7clXXLe9oWTEN6Wm-5" edge="1">
          <mxGeometry relative="1" as="geometry">
            <mxPoint x="180" y="80" as="targetPoint" />
          </mxGeometry>
        </mxCell>
        <mxCell id="OOMY7clXXLe9oWTEN6Wm-26" value="" style="edgeStyle=orthogonalEdgeStyle;rounded=0;orthogonalLoop=1;jettySize=auto;html=1;" parent="OOMY7clXXLe9oWTEN6Wm-1" source="OOMY7clXXLe9oWTEN6Wm-5" target="OOMY7clXXLe9oWTEN6Wm-25" edge="1">
          <mxGeometry relative="1" as="geometry" />
        </mxCell>
        <mxCell id="OOMY7clXXLe9oWTEN6Wm-5" value="Extract Output Model from json folder" style="rounded=1;whiteSpace=wrap;html=1;arcSize=40;fontColor=#000000;fillColor=#ffffc0;strokeColor=#ff0000;" parent="OOMY7clXXLe9oWTEN6Wm-1" vertex="1">
          <mxGeometry x="160" y="90" width="120" height="40" as="geometry" />
        </mxCell>
        <mxCell id="OOMY7clXXLe9oWTEN6Wm-6" style="edgeStyle=orthogonalEdgeStyle;rounded=0;orthogonalLoop=1;jettySize=auto;html=1;entryX=0.5;entryY=0;entryDx=0;entryDy=0;" parent="OOMY7clXXLe9oWTEN6Wm-1" source="OOMY7clXXLe9oWTEN6Wm-10" edge="1">
          <mxGeometry relative="1" as="geometry">
            <Array as="points">
              <mxPoint x="100" y="303.01" />
            </Array>
            <mxPoint x="100" y="346.26999999999987" as="targetPoint" />
          </mxGeometry>
        </mxCell>
        <mxCell id="OOMY7clXXLe9oWTEN6Wm-7" value="&lt;font style=&quot;font-size: 14px;&quot;&gt;Yes&lt;/font&gt;" style="edgeLabel;html=1;align=center;verticalAlign=middle;resizable=0;points=[];" parent="OOMY7clXXLe9oWTEN6Wm-6" vertex="1" connectable="0">
          <mxGeometry x="-0.0833" y="3" relative="1" as="geometry">
            <mxPoint as="offset" />
          </mxGeometry>
        </mxCell>
        <mxCell id="OOMY7clXXLe9oWTEN6Wm-8" style="edgeStyle=orthogonalEdgeStyle;rounded=0;orthogonalLoop=1;jettySize=auto;html=1;entryX=0.5;entryY=0;entryDx=0;entryDy=0;" parent="OOMY7clXXLe9oWTEN6Wm-1" source="OOMY7clXXLe9oWTEN6Wm-10" target="OOMY7clXXLe9oWTEN6Wm-23" edge="1">
          <mxGeometry relative="1" as="geometry">
            <Array as="points">
              <mxPoint x="220" y="407" />
              <mxPoint x="220" y="407" />
            </Array>
            <mxPoint x="340" y="353.14" as="targetPoint" />
          </mxGeometry>
        </mxCell>
        <mxCell id="OOMY7clXXLe9oWTEN6Wm-9" value="&lt;font style=&quot;font-size: 14px;&quot;&gt;No&lt;/font&gt;" style="edgeLabel;html=1;align=center;verticalAlign=middle;resizable=0;points=[];" parent="OOMY7clXXLe9oWTEN6Wm-8" vertex="1" connectable="0">
          <mxGeometry x="0.02" y="-1" relative="1" as="geometry">
            <mxPoint y="-165" as="offset" />
          </mxGeometry>
        </mxCell>
        <mxCell id="OOMY7clXXLe9oWTEN6Wm-42" value="&lt;font style=&quot;font-size: 14px;&quot;&gt;No&lt;/font&gt;" style="edgeLabel;html=1;align=center;verticalAlign=middle;resizable=0;points=[];" parent="OOMY7clXXLe9oWTEN6Wm-8" vertex="1" connectable="0">
          <mxGeometry x="-0.7897" y="1" relative="1" as="geometry">
            <mxPoint as="offset" />
          </mxGeometry>
        </mxCell>
        <mxCell id="OOMY7clXXLe9oWTEN6Wm-10" value="Solution.json?" style="rhombus;whiteSpace=wrap;html=1;fontColor=#000000;fillColor=#ffffc0;strokeColor=#ff0000;" parent="OOMY7clXXLe9oWTEN6Wm-1" vertex="1">
          <mxGeometry x="160" y="273.13" width="120" height="60" as="geometry" />
        </mxCell>
        <mxCell id="OOMY7clXXLe9oWTEN6Wm-13" value="" style="edgeStyle=orthogonalEdgeStyle;rounded=0;orthogonalLoop=1;jettySize=auto;html=1;" parent="OOMY7clXXLe9oWTEN6Wm-1" edge="1">
          <mxGeometry relative="1" as="geometry">
            <mxPoint x="100.05882352941171" y="359.99999999999966" as="sourcePoint" />
          </mxGeometry>
        </mxCell>
        <mxCell id="OOMY7clXXLe9oWTEN6Wm-15" value="" style="edgeStyle=orthogonalEdgeStyle;rounded=0;orthogonalLoop=1;jettySize=auto;html=1;" parent="OOMY7clXXLe9oWTEN6Wm-1" edge="1">
          <mxGeometry relative="1" as="geometry">
            <mxPoint x="220.0588235294117" y="449.99999999999966" as="sourcePoint" />
          </mxGeometry>
        </mxCell>
        <mxCell id="OOMY7clXXLe9oWTEN6Wm-17" value="" style="edgeStyle=orthogonalEdgeStyle;rounded=0;orthogonalLoop=1;jettySize=auto;html=1;entryX=0.5;entryY=0;entryDx=0;entryDy=0;" parent="OOMY7clXXLe9oWTEN6Wm-1" edge="1">
          <mxGeometry relative="1" as="geometry">
            <mxPoint x="340" y="299.99999999999966" as="targetPoint" />
          </mxGeometry>
        </mxCell>
        <mxCell id="OOMY7clXXLe9oWTEN6Wm-19" style="edgeStyle=orthogonalEdgeStyle;rounded=0;orthogonalLoop=1;jettySize=auto;html=1;entryX=0.5;entryY=0;entryDx=0;entryDy=0;" parent="OOMY7clXXLe9oWTEN6Wm-1" edge="1">
          <mxGeometry relative="1" as="geometry">
            <mxPoint x="220" y="409.99999999999966" as="targetPoint" />
          </mxGeometry>
        </mxCell>
        <mxCell id="OOMY7clXXLe9oWTEN6Wm-23" value="" style="ellipse;html=1;shape=endState;fillColor=#000000;strokeColor=#ff0000;" parent="OOMY7clXXLe9oWTEN6Wm-1" vertex="1">
          <mxGeometry x="205" y="569.6800000000001" width="30" height="30" as="geometry" />
        </mxCell>
        <mxCell id="OOMY7clXXLe9oWTEN6Wm-32" style="edgeStyle=orthogonalEdgeStyle;rounded=0;orthogonalLoop=1;jettySize=auto;html=1;entryX=0.5;entryY=0;entryDx=0;entryDy=0;" parent="OOMY7clXXLe9oWTEN6Wm-1" source="OOMY7clXXLe9oWTEN6Wm-25" target="OOMY7clXXLe9oWTEN6Wm-31" edge="1">
          <mxGeometry relative="1" as="geometry" />
        </mxCell>
        <mxCell id="OOMY7clXXLe9oWTEN6Wm-25" value="Convert model to ecore" style="whiteSpace=wrap;html=1;fillColor=#ffffc0;strokeColor=#ff0000;fontColor=#000000;rounded=1;arcSize=40;" parent="OOMY7clXXLe9oWTEN6Wm-1" vertex="1">
          <mxGeometry x="160" y="153.13" width="120" height="36.87" as="geometry" />
        </mxCell>
        <mxCell id="OOMY7clXXLe9oWTEN6Wm-33" style="edgeStyle=orthogonalEdgeStyle;rounded=0;orthogonalLoop=1;jettySize=auto;html=1;entryX=0.5;entryY=0;entryDx=0;entryDy=0;" parent="OOMY7clXXLe9oWTEN6Wm-1" source="OOMY7clXXLe9oWTEN6Wm-31" target="OOMY7clXXLe9oWTEN6Wm-10" edge="1">
          <mxGeometry relative="1" as="geometry" />
        </mxCell>
        <mxCell id="OOMY7clXXLe9oWTEN6Wm-31" value="Save model in /ecore" style="whiteSpace=wrap;html=1;fillColor=#ffffc0;strokeColor=#ff0000;fontColor=#000000;rounded=1;arcSize=40;" parent="OOMY7clXXLe9oWTEN6Wm-1" vertex="1">
          <mxGeometry x="160" y="211.26" width="120" height="36.87" as="geometry" />
        </mxCell>
        <mxCell id="OOMY7clXXLe9oWTEN6Wm-37" style="edgeStyle=orthogonalEdgeStyle;rounded=0;orthogonalLoop=1;jettySize=auto;html=1;entryX=0.5;entryY=0;entryDx=0;entryDy=0;" parent="OOMY7clXXLe9oWTEN6Wm-1" source="OOMY7clXXLe9oWTEN6Wm-34" target="OOMY7clXXLe9oWTEN6Wm-35" edge="1">
          <mxGeometry relative="1" as="geometry" />
        </mxCell>
        <mxCell id="OOMY7clXXLe9oWTEN6Wm-34" value="Extract Solution Model from json folder" style="rounded=1;whiteSpace=wrap;html=1;arcSize=40;fontColor=#000000;fillColor=#ffffc0;strokeColor=#ff0000;" parent="OOMY7clXXLe9oWTEN6Wm-1" vertex="1">
          <mxGeometry x="40" y="343.13" width="120" height="40" as="geometry" />
        </mxCell>
        <mxCell id="OOMY7clXXLe9oWTEN6Wm-38" style="edgeStyle=orthogonalEdgeStyle;rounded=0;orthogonalLoop=1;jettySize=auto;html=1;entryX=0.5;entryY=0;entryDx=0;entryDy=0;" parent="OOMY7clXXLe9oWTEN6Wm-1" source="OOMY7clXXLe9oWTEN6Wm-35" target="OOMY7clXXLe9oWTEN6Wm-36" edge="1">
          <mxGeometry relative="1" as="geometry" />
        </mxCell>
        <mxCell id="OOMY7clXXLe9oWTEN6Wm-35" value="Convert&amp;nbsp; solution to ecore" style="whiteSpace=wrap;html=1;fillColor=#ffffc0;strokeColor=#ff0000;fontColor=#000000;rounded=1;arcSize=40;" parent="OOMY7clXXLe9oWTEN6Wm-1" vertex="1">
          <mxGeometry x="40" y="406.26" width="120" height="36.87" as="geometry" />
        </mxCell>
        <mxCell id="OOMY7clXXLe9oWTEN6Wm-39" style="edgeStyle=orthogonalEdgeStyle;rounded=0;orthogonalLoop=1;jettySize=auto;html=1;entryX=0.5;entryY=0;entryDx=0;entryDy=0;" parent="OOMY7clXXLe9oWTEN6Wm-1" source="OOMY7clXXLe9oWTEN6Wm-36" target="OOMY7clXXLe9oWTEN6Wm-23" edge="1">
          <mxGeometry relative="1" as="geometry" />
        </mxCell>
        <mxCell id="OOMY7clXXLe9oWTEN6Wm-36" value="Save solution in /ecore" style="whiteSpace=wrap;html=1;fillColor=#ffffc0;strokeColor=#ff0000;fontColor=#000000;rounded=1;arcSize=40;" parent="OOMY7clXXLe9oWTEN6Wm-1" vertex="1">
          <mxGeometry x="40" y="466.56" width="120" height="36.87" as="geometry" />
        </mxCell>
      </root>
    </mxGraphModel>
  </diagram>
</mxfile>
